<?xml version="1.0" standalone="no"?>
<!DOCTYPE svg PUBLIC "-//W3C//DTD SVG 20010904//EN"
 "http://www.w3.org/TR/2001/REC-SVG-20010904/DTD/svg10.dtd">
<svg version="1.0" xmlns="http://www.w3.org/2000/svg"
 width="114.000000pt" height="77.000000pt" viewBox="0 0 114.000000 77.000000"
 preserveAspectRatio="xMidYMid meet">

<g transform="translate(0.000000,77.000000) scale(0.100000,-0.100000)"
fill="#000000" stroke="none">
<path d="M288 661 l-258 -85 0 -186 0 -185 253 -82 c138 -45 264 -85 278 -88
19 -5 106 19 298 81 l271 89 0 187 0 187 -37 10 c-21 6 -140 44 -265 86 -125
41 -240 74 -255 74 -16 -1 -144 -40 -285 -88z m558 -9 l269 -89 0 -173 0 -173
-150 -49 c-82 -27 -202 -66 -266 -87 l-117 -38 -143 47 c-79 25 -199 64 -266
86 l-123 39 0 175 0 175 263 87 c144 47 262 87 263 87 0 1 122 -39 270 -87z"/>
<path d="M432 460 c6 -17 143 -189 149 -187 9 3 149 180 149 189 0 4 -68 8
-151 8 -93 0 -149 -4 -147 -10z m268 -7 c0 -6 -96 -132 -115 -151 -4 -5 -125
141 -125 151 0 4 54 7 120 7 66 0 120 -3 120 -7z"/>
</g>
</svg>
