<?xml version="1.0" standalone="no"?>
<!DOCTYPE svg PUBLIC "-//W3C//DTD SVG 20010904//EN"
 "http://www.w3.org/TR/2001/REC-SVG-20010904/DTD/svg10.dtd">
<svg version="1.0" xmlns="http://www.w3.org/2000/svg"
 width="880.000000pt" height="880.000000pt" viewBox="0 0 880.000000 880.000000"
 preserveAspectRatio="xMidYMid meet">

<g transform="translate(0.000000,880.000000) scale(0.100000,-0.100000)"
fill="#000000" stroke="none">
<path d="M3480 8550 c-153 -13 -192 -21 -217 -46 -26 -26 -31 -78 -10 -106 7
-9 46 -31 87 -50 l75 -33 -170 -6 c-237 -9 -353 -38 -555 -138 -303 -150 -449
-320 -507 -592 -25 -120 -25 -542 0 -714 37 -246 102 -479 198 -703 l49 -115
-37 -46 c-21 -25 -105 -111 -188 -191 -537 -519 -707 -724 -861 -1035 -164
-332 -176 -614 -47 -1119 l35 -139 -155 -156 c-200 -201 -257 -287 -292 -433
-32 -138 -7 -366 54 -486 26 -51 51 -68 126 -87 77 -20 147 -59 208 -115 l49
-45 -78 -52 c-114 -75 -209 -158 -270 -237 l-54 -68 80 -87 c43 -48 150 -157
238 -242 454 -442 968 -772 1537 -986 356 -134 749 -219 1220 -263 141 -13
613 -13 747 0 260 25 320 33 422 50 60 11 110 20 111 22 2 2 -39 212 -91 468
-91 448 -149 682 -289 1165 -30 105 -55 193 -55 198 0 4 22 7 50 7 78 0 147
19 201 56 l50 33 32 -19 c50 -31 167 -53 257 -48 44 2 80 3 80 2 0 -1 11 -56
25 -123 61 -300 122 -553 185 -771 129 -441 229 -772 234 -777 8 -8 204 72
351 142 254 122 549 302 745 453 130 101 370 302 370 311 0 4 -9 50 -20 102
-48 233 -52 379 -14 524 55 210 43 471 -32 690 l-34 100 52 105 c49 100 58
111 203 255 164 163 227 244 279 357 57 124 71 195 70 353 -1 218 -25 294
-137 432 -205 255 -297 509 -297 823 0 218 36 369 140 585 65 135 80 191 80
304 0 86 -13 141 -100 431 -32 107 -95 329 -139 493 -102 376 -130 450 -236
612 -212 328 -601 583 -1021 671 -118 25 -149 27 -364 28 -312 1 -441 -24
-671 -131 l-96 -44 -74 56 c-180 136 -557 291 -849 349 -168 34 -454 45 -680
26z m679 -194 c189 -42 387 -114 578 -210 105 -52 169 -99 238 -172 63 -67 81
-68 178 -13 143 81 305 137 465 160 114 16 462 6 562 -16 421 -93 795 -361
968 -692 63 -121 86 -189 167 -493 40 -151 107 -388 149 -527 41 -138 78 -273
82 -300 9 -75 -12 -155 -77 -288 -111 -228 -143 -371 -143 -630 1 -197 18
-307 70 -465 47 -141 121 -278 218 -405 45 -59 90 -120 100 -137 28 -44 45
-140 45 -253 1 -225 -71 -372 -276 -562 -136 -128 -218 -234 -280 -362 -56
-116 -58 -152 -15 -276 17 -49 38 -125 46 -167 31 -149 15 -419 -30 -528 -22
-53 -92 -119 -159 -151 -72 -35 -160 -39 -264 -13 -165 41 -267 133 -311 279
-11 39 -8 51 84 314 53 150 96 286 96 302 0 36 -39 79 -72 79 -53 1 -52 6 12
214 79 258 116 399 135 516 20 120 30 391 20 534 -7 102 -9 112 -35 138 -23
23 -37 28 -74 28 -89 0 -102 41 -100 340 1 167 4 200 32 335 55 266 66 373 66
665 0 273 -10 390 -52 596 -16 79 -17 95 -5 139 22 80 11 481 -16 608 -62 283
-180 465 -395 605 -192 125 -308 168 -435 160 -158 -9 -268 -117 -331 -326
-12 -40 -23 -72 -24 -72 -1 0 -60 26 -131 59 -162 73 -301 123 -430 157 -82
22 -130 27 -271 31 -151 5 -180 3 -254 -16 -405 -102 -656 -461 -755 -1083
-11 -72 -246 -2627 -268 -2913 -10 -128 19 -225 108 -365 91 -143 130 -298
123 -484 -6 -132 -23 -191 -93 -324 -102 -194 -256 -348 -534 -534 l-194 -130
-61 28 c-132 63 -281 199 -365 334 -54 86 -70 100 -111 100 -43 0 -59 -15 -87
-80 -29 -68 -77 -103 -170 -129 -94 -25 -113 -26 -180 -6 -70 21 -130 88 -172
192 -70 175 -208 301 -393 358 l-57 18 -21 79 c-29 106 -28 233 0 320 37 108
85 172 267 357 95 97 176 186 179 197 3 12 -13 85 -35 162 -63 219 -83 336
-88 518 -7 223 18 352 108 539 127 267 289 467 704 871 152 148 308 307 347
353 66 79 69 87 65 125 -2 23 -27 91 -55 151 -167 364 -244 774 -222 1180 9
163 28 243 78 339 85 162 264 292 517 374 134 44 223 57 380 56 171 -2 274
-22 502 -99 94 -32 169 -52 180 -48 39 13 63 46 63 84 0 31 -6 42 -37 67 -56
43 -154 108 -273 180 l-105 64 205 -6 c167 -4 226 -10 319 -30z m1696 -834
c28 -10 95 -42 150 -72 288 -158 416 -427 418 -875 1 -175 8 -133 -104 -587
-45 -182 -49 -207 -49 -320 0 -357 -52 -844 -135 -1280 -26 -134 -48 -319 -85
-691 -28 -280 -57 -543 -66 -585 -34 -163 -99 -332 -165 -428 -78 -114 -231
-250 -345 -307 -48 -24 -56 -26 -114 -16 -35 5 -78 16 -96 24 -30 12 -32 17
-28 47 9 52 -25 88 -81 88 -48 0 -49 -2 -104 -91 -38 -60 -86 -84 -171 -84
-63 1 -69 3 -195 79 -208 125 -610 397 -730 493 -127 102 -329 301 -399 394
-71 93 -116 192 -116 253 0 85 249 2796 266 2891 62 360 170 603 337 761 87
83 183 136 291 159 112 25 322 16 461 -18 127 -32 339 -117 502 -202 69 -36
137 -65 150 -65 34 0 83 51 83 87 0 47 38 190 64 241 13 27 43 65 65 85 37 33
47 37 94 37 28 -1 75 -8 102 -18z m-1995 -4743 c109 -88 308 -225 553 -381
l170 -108 -95 0 c-61 0 -121 7 -169 19 -93 24 -309 115 -501 212 l-148 74 -4
155 c-2 85 -8 169 -12 185 -7 29 -5 28 52 -25 33 -30 102 -89 154 -131z m246
-576 c189 -75 248 -86 420 -81 l143 4 11 -30 c5 -16 9 -31 7 -32 -2 -2 -105
12 -230 31 -125 19 -239 35 -253 35 -35 0 -74 -42 -74 -79 0 -17 10 -42 23
-57 23 -26 36 -29 302 -70 152 -23 281 -46 285 -51 5 -4 12 -21 16 -36 6 -28
6 -28 -27 -22 -86 15 -468 65 -498 65 -74 0 -110 -89 -57 -139 22 -20 59 -28
330 -66 169 -23 308 -44 310 -46 6 -6 75 -264 72 -267 -2 -1 -57 4 -122 12
-213 27 -950 188 -1069 235 -156 60 -327 175 -404 271 -33 41 -33 42 -15 60
19 19 21 18 94 -27 41 -25 148 -88 238 -140 184 -105 223 -115 261 -67 23 29
27 64 11 94 -5 10 -72 53 -147 96 -176 99 -313 184 -313 194 0 4 7 13 15 20
23 19 114 166 152 245 l34 73 177 -87 c97 -47 236 -110 308 -138z m1604 34
c-5 -49 -11 -91 -13 -93 -3 -3 -12 28 -21 68 l-17 73 27 23 c14 13 28 22 29
20 2 -2 -1 -43 -5 -91z"/>
<path d="M6401 7794 c-21 -27 -26 -58 -15 -88 3 -9 43 -45 89 -81 315 -246
489 -595 523 -1052 10 -123 20 -147 72 -158 30 -7 57 3 84 31 19 19 21 83 5
222 -53 475 -251 842 -594 1099 -84 63 -130 71 -164 27z"/>
<path d="M2711 7307 c-14 -16 -32 -65 -52 -143 -99 -390 -3 -750 279 -1043 70
-74 81 -81 115 -81 48 0 87 36 87 80 0 24 -15 47 -75 110 -91 98 -146 177
-195 284 -64 137 -75 190 -74 371 0 141 4 172 27 260 33 122 33 130 2 160 -32
33 -83 34 -114 2z"/>
<path d="M6967 5927 c-14 -14 -33 -59 -50 -118 -201 -727 -89 -1349 330 -1834
59 -68 74 -80 104 -83 51 -4 89 28 89 76 0 30 -10 49 -56 102 -385 450 -489
1026 -304 1683 33 118 32 146 -7 177 -34 27 -78 25 -106 -3z"/>
<path d="M2265 5354 c-337 -235 -552 -505 -655 -822 -39 -121 -39 -143 2 -177
25 -21 38 -25 62 -21 46 10 62 31 91 124 95 305 296 554 632 780 70 47 85 80
59 130 -32 62 -87 58 -191 -14z"/>
<path d="M2943 5168 c-61 -57 -173 -203 -232 -303 -227 -386 -253 -836 -76
-1344 59 -169 93 -238 124 -251 16 -6 40 -8 55 -4 28 7 66 47 66 70 0 7 -22
68 -49 136 -53 131 -89 251 -118 388 -22 108 -25 410 -4 515 46 233 158 456
325 644 75 84 82 111 40 160 -37 45 -73 42 -131 -11z"/>
<path d="M1960 3254 c-159 -43 -322 -195 -407 -380 -27 -60 -26 -91 7 -124 22
-22 70 -26 100 -10 11 6 36 43 57 83 51 97 148 198 227 237 53 26 166 49 244
50 48 0 70 97 32 138 -19 20 -31 22 -113 21 -51 0 -117 -7 -147 -15z"/>
<path d="M3736 6419 c-14 -17 -26 -37 -26 -45 0 -27 103 -289 121 -308 23 -25
81 -26 107 -3 50 45 351 -7 882 -152 102 -28 199 -51 216 -51 64 0 102 86 57
131 -22 23 -1266 459 -1307 459 -15 0 -35 -12 -50 -31z"/>
<path d="M6260 6313 c-8 -3 -155 -68 -326 -144 -171 -77 -314 -139 -318 -139
-3 0 -4 11 0 24 8 32 -21 84 -50 92 -41 10 -78 0 -97 -26 -10 -14 -24 -61 -31
-105 l-12 -80 -9 94 c-5 54 -15 104 -24 117 -32 49 -121 37 -142 -19 -6 -14
23 -416 75 -1057 46 -569 83 -1041 84 -1047 0 -18 -130 -17 -195 1 -80 21
-198 74 -285 127 -106 64 -156 66 -186 7 -36 -69 0 -105 204 -207 157 -78 239
-103 368 -108 183 -9 264 26 264 114 0 43 -134 1734 -146 1847 l-6 59 27 -21
c36 -29 57 -28 160 9 143 50 305 89 396 96 83 6 87 5 94 -16 16 -51 100 -66
138 -23 20 23 117 297 117 332 0 49 -56 90 -100 73z"/>
<path d="M4386 5840 c-26 -32 -42 -103 -32 -143 17 -70 87 -127 184 -148 50
-12 57 -11 108 14 30 15 54 30 54 34 0 5 7 16 14 26 12 16 22 17 105 7 123
-14 161 4 161 76 0 32 -15 61 -38 73 -9 5 -71 14 -137 21 -66 7 -168 25 -228
41 -138 37 -158 37 -191 -1z"/>
<path d="M5858 5811 c-69 -20 -136 -45 -147 -55 -41 -37 -17 -176 40 -234 51
-52 136 -57 199 -11 93 67 128 128 132 228 3 58 1 65 -25 87 -15 13 -38 24
-50 23 -12 -1 -79 -17 -149 -38z"/>
<path d="M4475 4376 c-333 -95 -545 -299 -645 -622 -26 -87 -26 -100 10 -136
26 -25 36 -29 63 -24 44 9 60 30 87 111 92 282 269 441 591 529 42 12 58 22
67 41 19 40 14 74 -13 100 -30 31 -55 31 -160 1z"/>
<path d="M4302 3770 c-54 -33 -123 -111 -151 -170 -23 -48 -26 -68 -26 -160 0
-127 14 -165 60 -165 34 0 34 3 20 136 -6 49 -3 80 10 125 15 51 27 69 91 131
75 72 84 89 62 111 -17 17 -28 15 -66 -8z"/>
<path d="M4371 3564 c-28 -36 -26 -68 7 -103 31 -32 127 -57 337 -87 116 -17
174 -17 908 -14 4 0 16 9 27 20 28 28 27 84 -4 114 -33 34 -125 40 -443 32
-290 -7 -415 1 -610 40 -162 32 -196 32 -222 -2z"/>
<path d="M5373 1809 c-38 -20 -44 -59 -28 -186 32 -243 81 -454 170 -733 31
-96 74 -238 97 -315 22 -77 43 -143 47 -146 3 -4 41 4 83 17 l76 24 -19 70
c-11 39 -45 148 -75 243 -139 432 -179 594 -211 854 -11 87 -22 142 -32 154
-19 24 -78 33 -108 18z"/>
</g>
</svg>
