<?xml version="1.0" standalone="no"?>
<!DOCTYPE svg PUBLIC "-//W3C//DTD SVG 20010904//EN"
 "http://www.w3.org/TR/2001/REC-SVG-20010904/DTD/svg10.dtd">
<svg version="1.0" xmlns="http://www.w3.org/2000/svg"
 width="1792.000000pt" height="1024.000000pt" viewBox="0 0 1792.000000 1024.000000"
 preserveAspectRatio="xMidYMid meet">

<g transform="translate(0.000000,1024.000000) scale(0.100000,-0.100000)"
fill="#000000" stroke="none">
<path d="M2288 7259 c-1253 -1171 -2278 -2134 -2278 -2139 0 -5 1025 -968
2277 -2139 l2278 -2130 4570 0 4570 0 2103 2135 2103 2134 -2103 2134 -2103
2135 -4570 0 -4570 0 -2277 -2130z m13102 -223 c1031 -1046 1875 -1909 1875
-1916 0 -7 -844 -870 -1875 -1916 l-1875 -1903 -4385 -1 -4385 0 -2040 1907
c-1122 1049 -2040 1910 -2040 1913 0 3 918 864 2040 1913 l2040 1907 4385 0
4385 -1 1875 -1903z"/>
<path d="M8685 6454 c-1166 -7 -2150 -14 -2186 -16 l-65 -3 139 -250 c207
-370 272 -489 457 -825 236 -430 355 -646 522 -945 80 -143 198 -357 263 -475
336 -611 444 -806 580 -1050 51 -91 155 -280 233 -420 383 -697 444 -806 451
-812 4 -4 72 113 151 260 79 147 196 364 260 482 65 118 233 431 375 695 425
791 670 1246 920 1710 131 242 320 593 420 780 451 843 468 874 490 878 34 7
-797 5 -3010 -9z m2197 -516 c-22 -40 -74 -137 -116 -215 -178 -334 -402 -750
-773 -1438 -181 -335 -459 -852 -618 -1148 -159 -295 -293 -536 -298 -534 -11
3 -251 434 -932 1672 -48 88 -129 234 -180 325 -87 155 -181 325 -503 910 -74
135 -163 296 -198 359 -35 63 -62 117 -58 120 6 6 1369 15 2837 19 l878 2 -39
-72z"/>
</g>
</svg>
